<svg width="353" height="47" viewBox="0 0 353 47" fill="none" xmlns="http://www.w3.org/2000/svg">
<g filter="url(#filter0_d_1_2)">
<mask id="path-1-outside-1_1_2" maskUnits="userSpaceOnUse" x="3.312" y="-0.0399971" width="346" height="39" fill="black">
<rect fill="white" x="3.312" y="-0.0399971" width="346" height="39"/>
<path d="M10.76 37.96C9.704 37.96 8.728 37.704 7.832 37.192C6.968 36.68 6.28 35.992 5.768 35.128C5.256 34.232 5 33.256 5 32.2V9.16C5 8.104 5.256 7.144 5.768 6.28C6.28 5.384 6.968 4.68 7.832 4.168C8.728 3.656 9.704 3.4 10.76 3.4H39.464V7.288H10.76C10.248 7.288 9.8 7.48 9.416 7.864C9.064 8.216 8.888 8.648 8.888 9.16V32.2C8.888 32.712 9.064 33.16 9.416 33.544C9.8 33.896 10.248 34.072 10.76 34.072H39.464V37.96H10.76ZM50.0847 37.96C49.0287 37.96 48.0527 37.704 47.1567 37.192C46.2927 36.648 45.5887 35.944 45.0447 35.08C44.5327 34.184 44.2767 33.208 44.2767 32.152V22.072H68.6607V15.928C68.6607 15.416 68.4687 14.984 68.0847 14.632C67.7327 14.248 67.3007 14.056 66.7887 14.056H44.2767V10.12H66.7887C67.8767 10.12 68.8527 10.392 69.7167 10.936C70.6127 11.448 71.3167 12.152 71.8287 13.048C72.3727 13.912 72.6447 14.872 72.6447 15.928V37.96H50.0847ZM50.0847 34.024H68.6607V26.008H48.2127V32.152C48.2127 32.664 48.3887 33.112 48.7407 33.496C49.1247 33.848 49.5727 34.024 50.0847 34.024ZM83.4609 37.96C82.3729 37.96 81.3809 37.704 80.4849 37.192C79.6209 36.648 78.9329 35.944 78.4209 35.08C77.9089 34.184 77.6529 33.208 77.6529 32.152V1H81.5889V10.12H93.6369V14.056H81.5889V32.152C81.5889 32.664 81.7649 33.112 82.1169 33.496C82.5009 33.848 82.9489 34.024 83.4609 34.024H93.6369V37.96H83.4609ZM103.052 37.96C101.996 37.96 101.02 37.704 100.124 37.192C99.2604 36.648 98.5564 35.944 98.0124 35.08C97.5004 34.184 97.2444 33.208 97.2444 32.152V15.928C97.2444 14.872 97.5004 13.912 98.0124 13.048C98.5564 12.152 99.2604 11.448 100.124 10.936C101.02 10.392 101.996 10.12 103.052 10.12H119.756C120.844 10.12 121.82 10.392 122.684 10.936C123.58 11.448 124.284 12.152 124.796 13.048C125.34 13.912 125.612 14.872 125.612 15.928V26.008H101.18V32.152C101.18 32.664 101.356 33.112 101.708 33.496C102.092 33.848 102.54 34.024 103.052 34.024H125.612V37.96H103.052ZM101.18 22.072H121.628V15.928C121.628 15.416 121.436 14.984 121.052 14.632C120.7 14.248 120.268 14.056 119.756 14.056H103.052C102.54 14.056 102.092 14.248 101.708 14.632C101.356 14.984 101.18 15.416 101.18 15.928V22.072ZM130.292 37.96V15.928C130.292 14.872 130.548 13.912 131.06 13.048C131.604 12.152 132.308 11.448 133.172 10.936C134.068 10.392 135.044 10.12 136.1 10.12H151.748V14.056H136.1C135.588 14.056 135.14 14.248 134.756 14.632C134.404 14.984 134.228 15.416 134.228 15.928V37.96H130.292ZM154.855 37.96V10.12H158.791V37.96H154.855ZM154.855 4.936V1H158.791V4.936H154.855ZM164.232 37.96V10.12H186.792C187.848 10.12 188.808 10.392 189.672 10.936C190.568 11.448 191.272 12.152 191.784 13.048C192.328 13.912 192.6 14.872 192.6 15.928V37.96H188.664V15.928C188.664 15.416 188.472 14.984 188.088 14.632C187.736 14.248 187.304 14.056 186.792 14.056H170.088C169.576 14.056 169.128 14.248 168.744 14.632C168.36 14.984 168.168 15.416 168.168 15.928V37.96H164.232ZM203.366 37.96C202.31 37.96 201.334 37.704 200.438 37.192C199.574 36.648 198.87 35.944 198.326 35.08C197.814 34.184 197.558 33.208 197.558 32.152V22.072H221.942V15.928C221.942 15.416 221.75 14.984 221.366 14.632C221.014 14.248 220.582 14.056 220.07 14.056H197.558V10.12H220.07C221.158 10.12 222.134 10.392 222.998 10.936C223.894 11.448 224.598 12.152 225.11 13.048C225.654 13.912 225.926 14.872 225.926 15.928V37.96H203.366ZM203.366 34.024H221.942V26.008H201.494V32.152C201.494 32.664 201.67 33.112 202.022 33.496C202.406 33.848 202.854 34.024 203.366 34.024ZM242.646 37.96L230.07 3.4H234.198L244.326 31.144L254.406 3.4H259.11L269.238 31.144L279.27 3.4H283.494L270.918 37.96H267.51L256.758 8.44L246.006 37.96H242.646ZM291.537 37.96C290.481 37.96 289.505 37.704 288.609 37.192C287.745 36.648 287.041 35.944 286.497 35.08C285.985 34.184 285.729 33.208 285.729 32.152V15.928C285.729 14.872 285.985 13.912 286.497 13.048C287.041 12.152 287.745 11.448 288.609 10.936C289.505 10.392 290.481 10.12 291.537 10.12H308.241C309.329 10.12 310.305 10.392 311.169 10.936C312.065 11.448 312.769 12.152 313.281 13.048C313.825 13.912 314.097 14.872 314.097 15.928V26.008H289.665V32.152C289.665 32.664 289.841 33.112 290.193 33.496C290.577 33.848 291.025 34.024 291.537 34.024H314.097V37.96H291.537ZM289.665 22.072H310.113V15.928C310.113 15.416 309.921 14.984 309.537 14.632C309.185 14.248 308.753 14.056 308.241 14.056H291.537C291.025 14.056 290.577 14.248 290.193 14.632C289.841 14.984 289.665 15.416 289.665 15.928V22.072ZM319.107 37.96V1H323.043V10.12H341.667C342.723 10.12 343.683 10.392 344.547 10.936C345.443 11.448 346.147 12.152 346.659 13.048C347.203 13.912 347.475 14.872 347.475 15.928V32.152C347.475 33.208 347.203 34.184 346.659 35.08C346.147 35.944 345.443 36.648 344.547 37.192C343.683 37.704 342.723 37.96 341.667 37.96H319.107ZM324.963 34.024H341.667C342.179 34.024 342.611 33.848 342.963 33.496C343.347 33.112 343.539 32.664 343.539 32.152V15.928C343.539 15.416 343.347 14.984 342.963 14.632C342.611 14.248 342.179 14.056 341.667 14.056H324.963C324.451 14.056 324.003 14.248 323.619 14.632C323.235 14.984 323.043 15.416 323.043 15.928V32.152C323.043 32.664 323.235 33.112 323.619 33.496C324.003 33.848 324.451 34.024 324.963 34.024Z"/>
</mask>
<path d="M10.76 37.96C9.704 37.96 8.728 37.704 7.832 37.192C6.968 36.68 6.28 35.992 5.768 35.128C5.256 34.232 5 33.256 5 32.2V9.16C5 8.104 5.256 7.144 5.768 6.28C6.28 5.384 6.968 4.68 7.832 4.168C8.728 3.656 9.704 3.4 10.76 3.4H39.464V7.288H10.76C10.248 7.288 9.8 7.48 9.416 7.864C9.064 8.216 8.888 8.648 8.888 9.16V32.2C8.888 32.712 9.064 33.16 9.416 33.544C9.8 33.896 10.248 34.072 10.76 34.072H39.464V37.96H10.76ZM50.0847 37.96C49.0287 37.96 48.0527 37.704 47.1567 37.192C46.2927 36.648 45.5887 35.944 45.0447 35.08C44.5327 34.184 44.2767 33.208 44.2767 32.152V22.072H68.6607V15.928C68.6607 15.416 68.4687 14.984 68.0847 14.632C67.7327 14.248 67.3007 14.056 66.7887 14.056H44.2767V10.12H66.7887C67.8767 10.12 68.8527 10.392 69.7167 10.936C70.6127 11.448 71.3167 12.152 71.8287 13.048C72.3727 13.912 72.6447 14.872 72.6447 15.928V37.96H50.0847ZM50.0847 34.024H68.6607V26.008H48.2127V32.152C48.2127 32.664 48.3887 33.112 48.7407 33.496C49.1247 33.848 49.5727 34.024 50.0847 34.024ZM83.4609 37.96C82.3729 37.96 81.3809 37.704 80.4849 37.192C79.6209 36.648 78.9329 35.944 78.4209 35.08C77.9089 34.184 77.6529 33.208 77.6529 32.152V1H81.5889V10.12H93.6369V14.056H81.5889V32.152C81.5889 32.664 81.7649 33.112 82.1169 33.496C82.5009 33.848 82.9489 34.024 83.4609 34.024H93.6369V37.96H83.4609ZM103.052 37.96C101.996 37.96 101.02 37.704 100.124 37.192C99.2604 36.648 98.5564 35.944 98.0124 35.08C97.5004 34.184 97.2444 33.208 97.2444 32.152V15.928C97.2444 14.872 97.5004 13.912 98.0124 13.048C98.5564 12.152 99.2604 11.448 100.124 10.936C101.02 10.392 101.996 10.12 103.052 10.12H119.756C120.844 10.12 121.82 10.392 122.684 10.936C123.58 11.448 124.284 12.152 124.796 13.048C125.34 13.912 125.612 14.872 125.612 15.928V26.008H101.18V32.152C101.18 32.664 101.356 33.112 101.708 33.496C102.092 33.848 102.54 34.024 103.052 34.024H125.612V37.96H103.052ZM101.18 22.072H121.628V15.928C121.628 15.416 121.436 14.984 121.052 14.632C120.7 14.248 120.268 14.056 119.756 14.056H103.052C102.54 14.056 102.092 14.248 101.708 14.632C101.356 14.984 101.18 15.416 101.18 15.928V22.072ZM130.292 37.96V15.928C130.292 14.872 130.548 13.912 131.06 13.048C131.604 12.152 132.308 11.448 133.172 10.936C134.068 10.392 135.044 10.12 136.1 10.12H151.748V14.056H136.1C135.588 14.056 135.14 14.248 134.756 14.632C134.404 14.984 134.228 15.416 134.228 15.928V37.96H130.292ZM154.855 37.96V10.12H158.791V37.96H154.855ZM154.855 4.936V1H158.791V4.936H154.855ZM164.232 37.96V10.12H186.792C187.848 10.12 188.808 10.392 189.672 10.936C190.568 11.448 191.272 12.152 191.784 13.048C192.328 13.912 192.6 14.872 192.6 15.928V37.96H188.664V15.928C188.664 15.416 188.472 14.984 188.088 14.632C187.736 14.248 187.304 14.056 186.792 14.056H170.088C169.576 14.056 169.128 14.248 168.744 14.632C168.36 14.984 168.168 15.416 168.168 15.928V37.96H164.232ZM203.366 37.96C202.31 37.96 201.334 37.704 200.438 37.192C199.574 36.648 198.87 35.944 198.326 35.08C197.814 34.184 197.558 33.208 197.558 32.152V22.072H221.942V15.928C221.942 15.416 221.75 14.984 221.366 14.632C221.014 14.248 220.582 14.056 220.07 14.056H197.558V10.12H220.07C221.158 10.12 222.134 10.392 222.998 10.936C223.894 11.448 224.598 12.152 225.11 13.048C225.654 13.912 225.926 14.872 225.926 15.928V37.96H203.366ZM203.366 34.024H221.942V26.008H201.494V32.152C201.494 32.664 201.67 33.112 202.022 33.496C202.406 33.848 202.854 34.024 203.366 34.024ZM242.646 37.96L230.07 3.4H234.198L244.326 31.144L254.406 3.4H259.11L269.238 31.144L279.27 3.4H283.494L270.918 37.96H267.51L256.758 8.44L246.006 37.96H242.646ZM291.537 37.96C290.481 37.96 289.505 37.704 288.609 37.192C287.745 36.648 287.041 35.944 286.497 35.08C285.985 34.184 285.729 33.208 285.729 32.152V15.928C285.729 14.872 285.985 13.912 286.497 13.048C287.041 12.152 287.745 11.448 288.609 10.936C289.505 10.392 290.481 10.12 291.537 10.12H308.241C309.329 10.12 310.305 10.392 311.169 10.936C312.065 11.448 312.769 12.152 313.281 13.048C313.825 13.912 314.097 14.872 314.097 15.928V26.008H289.665V32.152C289.665 32.664 289.841 33.112 290.193 33.496C290.577 33.848 291.025 34.024 291.537 34.024H314.097V37.96H291.537ZM289.665 22.072H310.113V15.928C310.113 15.416 309.921 14.984 309.537 14.632C309.185 14.248 308.753 14.056 308.241 14.056H291.537C291.025 14.056 290.577 14.248 290.193 14.632C289.841 14.984 289.665 15.416 289.665 15.928V22.072ZM319.107 37.96V1H323.043V10.12H341.667C342.723 10.12 343.683 10.392 344.547 10.936C345.443 11.448 346.147 12.152 346.659 13.048C347.203 13.912 347.475 14.872 347.475 15.928V32.152C347.475 33.208 347.203 34.184 346.659 35.08C346.147 35.944 345.443 36.648 344.547 37.192C343.683 37.704 342.723 37.96 341.667 37.96H319.107ZM324.963 34.024H341.667C342.179 34.024 342.611 33.848 342.963 33.496C343.347 33.112 343.539 32.664 343.539 32.152V15.928C343.539 15.416 343.347 14.984 342.963 14.632C342.611 14.248 342.179 14.056 341.667 14.056H324.963C324.451 14.056 324.003 14.248 323.619 14.632C323.235 14.984 323.043 15.416 323.043 15.928V32.152C323.043 32.664 323.235 33.112 323.619 33.496C324.003 33.848 324.451 34.024 324.963 34.024Z" fill="#E68686"/>
<path d="M7.832 37.192L7.32219 38.0523L7.32899 38.0563L7.33586 38.0602L7.832 37.192ZM5.768 35.128L4.89975 35.6241L4.90368 35.631L4.90771 35.6378L5.768 35.128ZM5.768 6.28L6.62829 6.7898L6.63232 6.783L6.63624 6.77614L5.768 6.28ZM7.832 4.168L7.33586 3.29976L7.32899 3.30368L7.32219 3.30771L7.832 4.168ZM39.464 3.4H40.464V2.4H39.464V3.4ZM39.464 7.288V8.288H40.464V7.288H39.464ZM9.416 7.864L10.1231 8.57111H10.1231L9.416 7.864ZM9.416 33.544L8.67884 34.2197L8.70822 34.2518L8.74027 34.2812L9.416 33.544ZM39.464 34.072H40.464V33.072H39.464V34.072ZM39.464 37.96V38.96H40.464V37.96H39.464ZM10.76 37.96V36.96C9.87378 36.96 9.0694 36.7473 8.32814 36.3238L7.832 37.192L7.33586 38.0602C8.3866 38.6607 9.53421 38.96 10.76 38.96V37.96ZM7.832 37.192L8.3418 36.3317C7.62219 35.9053 7.05472 35.3378 6.62829 34.6182L5.768 35.128L4.90771 35.6378C5.50527 36.6462 6.3138 37.4547 7.32219 38.0523L7.832 37.192ZM5.768 35.128L6.63624 34.6319C6.21266 33.8906 6 33.0862 6 32.2H5H4C4 33.4258 4.29933 34.5734 4.89975 35.6241L5.768 35.128ZM5 32.2H6V9.16H5H4V32.2H5ZM5 9.16H6C6 8.27377 6.21253 7.4914 6.62829 6.7898L5.768 6.28L4.90771 5.7702C4.29947 6.7966 4 7.93424 4 9.16H5ZM5.768 6.28L6.63624 6.77614C7.06478 6.02619 7.63103 5.44949 8.3418 5.02829L7.832 4.168L7.32219 3.30771C6.30497 3.91051 5.49521 4.74181 4.89975 5.78386L5.768 6.28ZM7.832 4.168L8.32814 5.03624C9.0694 4.61267 9.87378 4.4 10.76 4.4V3.4V2.4C9.53421 2.4 8.3866 2.69934 7.33586 3.29976L7.832 4.168ZM10.76 3.4V4.4H39.464V3.4V2.4H10.76V3.4ZM39.464 3.4H38.464V7.288H39.464H40.464V3.4H39.464ZM39.464 7.288V6.288H10.76V7.288V8.288H39.464V7.288ZM10.76 7.288V6.288C9.96544 6.288 9.2678 6.59798 8.70889 7.15689L9.416 7.864L10.1231 8.57111C10.3322 8.36202 10.5306 8.288 10.76 8.288V7.288ZM9.416 7.864L8.70889 7.15689C8.16345 7.70233 7.888 8.39125 7.888 9.16H8.888H9.888C9.888 8.90475 9.96454 8.72967 10.1231 8.57111L9.416 7.864ZM8.888 9.16H7.888V32.2H8.888H9.888V9.16H8.888ZM8.888 32.2H7.888C7.888 32.967 8.16104 33.6549 8.67884 34.2197L9.416 33.544L10.1532 32.8683C9.96695 32.6651 9.888 32.457 9.888 32.2H8.888ZM9.416 33.544L8.74027 34.2812C9.30514 34.799 9.99302 35.072 10.76 35.072V34.072V33.072C10.503 33.072 10.2949 32.993 10.0917 32.8069L9.416 33.544ZM10.76 34.072V35.072H39.464V34.072V33.072H10.76V34.072ZM39.464 34.072H38.464V37.96H39.464H40.464V34.072H39.464ZM39.464 37.96V36.96H10.76V37.96V38.96H39.464V37.96ZM47.1567 37.192L46.6239 38.0382L46.642 38.0496L46.6606 38.0602L47.1567 37.192ZM45.0447 35.08L44.1765 35.5761L44.1871 35.5947L44.1985 35.6128L45.0447 35.08ZM44.2767 22.072V21.072H43.2767V22.072H44.2767ZM68.6608 22.072V23.072H69.6608V22.072H68.6608ZM68.0847 14.632L67.3476 15.3077L67.377 15.3398L67.409 15.3692L68.0847 14.632ZM44.2767 14.056H43.2767V15.056H44.2767V14.056ZM44.2767 10.12V9.12H43.2767V10.12H44.2767ZM69.7168 10.936L69.1839 11.7822L69.202 11.7936L69.2206 11.8042L69.7168 10.936ZM71.8288 13.048L70.9605 13.5441L70.9711 13.5627L70.9825 13.5808L71.8288 13.048ZM72.6447 37.96V38.96H73.6447V37.96H72.6447ZM68.6608 34.024V35.024H69.6608V34.024H68.6608ZM68.6608 26.008H69.6608V25.008H68.6608V26.008ZM48.2127 26.008V25.008H47.2127V26.008H48.2127ZM48.7407 33.496L48.0036 34.1717L48.033 34.2038L48.065 34.2332L48.7407 33.496ZM50.0847 37.96V36.96C49.1985 36.96 48.3941 36.7473 47.6529 36.3238L47.1567 37.192L46.6606 38.0602C47.7113 38.6607 48.859 38.96 50.0847 38.96V37.96ZM47.1567 37.192L47.6896 36.3458C46.9522 35.8815 46.3553 35.2846 45.891 34.5472L45.0447 35.08L44.1985 35.6128C44.8222 36.6034 45.6333 37.4145 46.6239 38.0382L47.1567 37.192ZM45.0447 35.08L45.913 34.5839C45.4894 33.8426 45.2767 33.0382 45.2767 32.152H44.2767H43.2767C43.2767 33.3778 43.5761 34.5254 44.1765 35.5761L45.0447 35.08ZM44.2767 32.152H45.2767V22.072H44.2767H43.2767V32.152H44.2767ZM44.2767 22.072V23.072H68.6608V22.072V21.072H44.2767V22.072ZM68.6608 22.072H69.6608V15.928H68.6608H67.6608V22.072H68.6608ZM68.6608 15.928H69.6608C69.6608 15.1302 69.347 14.4325 68.7605 13.8948L68.0847 14.632L67.409 15.3692C67.5905 15.5355 67.6608 15.7018 67.6608 15.928H68.6608ZM68.0847 14.632L68.8219 13.9563C68.2842 13.3697 67.5866 13.056 66.7887 13.056V14.056V15.056C67.0149 15.056 67.1812 15.1263 67.3476 15.3077L68.0847 14.632ZM66.7887 14.056V13.056H44.2767V14.056V15.056H66.7887V14.056ZM44.2767 14.056H45.2767V10.12H44.2767H43.2767V14.056H44.2767ZM44.2767 10.12V11.12H66.7887V10.12V9.12H44.2767V10.12ZM66.7887 10.12V11.12C67.7011 11.12 68.4901 11.3454 69.1839 11.7822L69.7168 10.936L70.2496 10.0898C69.2154 9.43863 68.0524 9.12 66.7887 9.12V10.12ZM69.7168 10.936L69.2206 11.8042C69.9616 12.2277 70.5371 12.8032 70.9605 13.5441L71.8288 13.048L72.697 12.5519C72.0964 11.5008 71.2639 10.6683 70.2129 10.0678L69.7168 10.936ZM71.8288 13.048L70.9825 13.5808C71.4225 14.2796 71.6447 15.0537 71.6447 15.928H72.6447H73.6447C73.6447 14.6903 73.323 13.5444 72.675 12.5152L71.8288 13.048ZM72.6447 15.928H71.6447V37.96H72.6447H73.6447V15.928H72.6447ZM72.6447 37.96V36.96H50.0847V37.96V38.96H72.6447V37.96ZM50.0847 34.024V35.024H68.6608V34.024V33.024H50.0847V34.024ZM68.6608 34.024H69.6608V26.008H68.6608H67.6608V34.024H68.6608ZM68.6608 26.008V25.008H48.2127V26.008V27.008H68.6608V26.008ZM48.2127 26.008H47.2127V32.152H48.2127H49.2127V26.008H48.2127ZM48.2127 32.152H47.2127C47.2127 32.919 47.4858 33.6069 48.0036 34.1717L48.7407 33.496L49.4779 32.8203C49.2917 32.6171 49.2127 32.409 49.2127 32.152H48.2127ZM48.7407 33.496L48.065 34.2332C48.6299 34.751 49.3178 35.024 50.0847 35.024V34.024V33.024C49.8277 33.024 49.6196 32.945 49.4165 32.7589L48.7407 33.496ZM80.4849 37.192L79.9521 38.0382L79.9702 38.0496L79.9887 38.0602L80.4849 37.192ZM78.4209 35.08L77.5526 35.5761L77.5565 35.583L77.5606 35.5898L78.4209 35.08ZM77.6529 1V0H76.6529V1H77.6529ZM81.5889 1H82.5889V0H81.5889V1ZM81.5889 10.12H80.5889V11.12H81.5889V10.12ZM93.6369 10.12H94.6369V9.12H93.6369V10.12ZM93.6369 14.056V15.056H94.6369V14.056H93.6369ZM81.5889 14.056V13.056H80.5889V14.056H81.5889ZM82.1169 33.496L81.3797 34.1717L81.4091 34.2038L81.4411 34.2332L82.1169 33.496ZM93.6369 34.024H94.6369V33.024H93.6369V34.024ZM93.6369 37.96V38.96H94.6369V37.96H93.6369ZM83.4609 37.96V36.96C82.5371 36.96 81.7176 36.7447 80.981 36.3238L80.4849 37.192L79.9887 38.0602C81.0441 38.6633 82.2087 38.96 83.4609 38.96V37.96ZM80.4849 37.192L81.0177 36.3458C80.2857 35.8849 79.7109 35.2953 79.2812 34.5702L78.4209 35.08L77.5606 35.5898C78.1549 36.5927 78.9561 37.4111 79.9521 38.0382L80.4849 37.192ZM78.4209 35.08L79.2891 34.5839C78.8655 33.8426 78.6529 33.0382 78.6529 32.152H77.6529H76.6529C76.6529 33.3778 76.9522 34.5254 77.5526 35.5761L78.4209 35.08ZM77.6529 32.152H78.6529V1H77.6529H76.6529V32.152H77.6529ZM77.6529 1V2H81.5889V1V0H77.6529V1ZM81.5889 1H80.5889V10.12H81.5889H82.5889V1H81.5889ZM81.5889 10.12V11.12H93.6369V10.12V9.12H81.5889V10.12ZM93.6369 10.12H92.6369V14.056H93.6369H94.6369V10.12H93.6369ZM93.6369 14.056V13.056H81.5889V14.056V15.056H93.6369V14.056ZM81.5889 14.056H80.5889V32.152H81.5889H82.5889V14.056H81.5889ZM81.5889 32.152H80.5889C80.5889 32.919 80.8619 33.6069 81.3797 34.1717L82.1169 33.496L82.854 32.8203C82.6678 32.6171 82.5889 32.409 82.5889 32.152H81.5889ZM82.1169 33.496L81.4411 34.2332C82.006 34.751 82.6939 35.024 83.4609 35.024V34.024V33.024C83.2038 33.024 82.9957 32.945 82.7926 32.7589L82.1169 33.496ZM83.4609 34.024V35.024H93.6369V34.024V33.024H83.4609V34.024ZM93.6369 34.024H92.6369V37.96H93.6369H94.6369V34.024H93.6369ZM93.6369 37.96V36.96H83.4609V37.96V38.96H93.6369V37.96ZM100.124 37.192L99.5916 38.0382L99.6097 38.0496L99.6282 38.0602L100.124 37.192ZM98.0124 35.08L97.1441 35.5761L97.1547 35.5947L97.1661 35.6128L98.0124 35.08ZM98.0124 13.048L97.1575 12.529L97.1521 12.5382L98.0124 13.048ZM100.124 10.936L100.634 11.7963L100.643 11.7908L100.124 10.936ZM122.684 10.936L122.152 11.7822L122.17 11.7936L122.188 11.8042L122.684 10.936ZM124.796 13.048L123.928 13.5441L123.939 13.5627L123.95 13.5808L124.796 13.048ZM125.612 26.008V27.008H126.612V26.008H125.612ZM101.18 26.008V25.008H100.18V26.008H101.18ZM101.708 33.496L100.971 34.1717L101.001 34.2038L101.033 34.2332L101.708 33.496ZM125.612 34.024H126.612V33.024H125.612V34.024ZM125.612 37.96V38.96H126.612V37.96H125.612ZM101.18 22.072H100.18V23.072H101.18V22.072ZM121.628 22.072V23.072H122.628V22.072H121.628ZM121.052 14.632L120.315 15.3077L120.345 15.3398L120.377 15.3692L121.052 14.632ZM103.052 37.96V36.96C102.166 36.96 101.362 36.7473 100.621 36.3238L100.124 37.192L99.6282 38.0602C100.679 38.6607 101.827 38.96 103.052 38.96V37.96ZM100.124 37.192L100.657 36.3458C99.9198 35.8815 99.3229 35.2846 98.8586 34.5472L98.0124 35.08L97.1661 35.6128C97.7898 36.6034 98.601 37.4145 99.5916 38.0382L100.124 37.192ZM98.0124 35.08L98.8806 34.5839C98.457 33.8426 98.2444 33.0382 98.2444 32.152H97.2444H96.2444C96.2444 33.3778 96.5437 34.5254 97.1441 35.5761L98.0124 35.08ZM97.2444 32.152H98.2444V15.928H97.2444H96.2444V32.152H97.2444ZM97.2444 15.928H98.2444C98.2444 15.0418 98.4569 14.2594 98.8727 13.5578L98.0124 13.048L97.1521 12.5382C96.5438 13.5646 96.2444 14.7022 96.2444 15.928H97.2444ZM98.0124 13.048L98.8672 13.567C99.3298 12.805 99.9177 12.2209 100.634 11.7963L100.124 10.936L99.6146 10.0757C98.603 10.6751 97.783 11.499 97.1576 12.529L98.0124 13.048ZM100.124 10.936L100.643 11.7908C101.382 11.3425 102.178 11.12 103.052 11.12V10.12V9.12C101.815 9.12 100.659 9.44149 99.6054 10.0812L100.124 10.936ZM103.052 10.12V11.12H119.756V10.12V9.12H103.052V10.12ZM119.756 10.12V11.12C120.669 11.12 121.458 11.3454 122.152 11.7822L122.684 10.936L123.217 10.0898C122.183 9.43863 121.02 9.12 119.756 9.12V10.12ZM122.684 10.936L122.188 11.8042C122.929 12.2277 123.505 12.8032 123.928 13.5441L124.796 13.048L125.665 12.5519C125.064 11.5008 124.232 10.6683 123.181 10.0678L122.684 10.936ZM124.796 13.048L123.95 13.5808C124.39 14.2796 124.612 15.0537 124.612 15.928H125.612H126.612C126.612 14.6903 126.291 13.5444 125.643 12.5152L124.796 13.048ZM125.612 15.928H124.612V26.008H125.612H126.612V15.928H125.612ZM125.612 26.008V25.008H101.18V26.008V27.008H125.612V26.008ZM101.18 26.008H100.18V32.152H101.18H102.18V26.008H101.18ZM101.18 32.152H100.18C100.18 32.919 100.453 33.6069 100.971 34.1717L101.708 33.496L102.446 32.8203C102.259 32.6171 102.18 32.409 102.18 32.152H101.18ZM101.708 33.496L101.033 34.2332C101.598 34.751 102.285 35.024 103.052 35.024V34.024V33.024C102.795 33.024 102.587 32.945 102.384 32.7589L101.708 33.496ZM103.052 34.024V35.024H125.612V34.024V33.024H103.052V34.024ZM125.612 34.024H124.612V37.96H125.612H126.612V34.024H125.612ZM125.612 37.96V36.96H103.052V37.96V38.96H125.612V37.96ZM101.18 22.072V23.072H121.628V22.072V21.072H101.18V22.072ZM121.628 22.072H122.628V15.928H121.628H120.628V22.072H121.628ZM121.628 15.928H122.628C122.628 15.1302 122.315 14.4325 121.728 13.8948L121.052 14.632L120.377 15.3692C120.558 15.5355 120.628 15.7018 120.628 15.928H121.628ZM121.052 14.632L121.79 13.9563C121.252 13.3697 120.554 13.056 119.756 13.056V14.056V15.056C119.983 15.056 120.149 15.1263 120.315 15.3077L121.052 14.632ZM119.756 14.056V13.056H103.052V14.056V15.056H119.756V14.056ZM103.052 14.056V13.056C102.258 13.056 101.56 13.366 101.001 13.9249L101.708 14.632L102.415 15.3391C102.625 15.13 102.823 15.056 103.052 15.056V14.056ZM101.708 14.632L101.001 13.9249C100.456 14.4703 100.18 15.1592 100.18 15.928H101.18H102.18C102.18 15.6728 102.257 15.4977 102.415 15.3391L101.708 14.632ZM101.18 15.928H100.18V22.072H101.18H102.18V15.928H101.18ZM130.292 37.96H129.292V38.96H130.292V37.96ZM131.06 13.048L130.206 12.529L130.2 12.5382L131.06 13.048ZM133.172 10.936L133.682 11.7963L133.691 11.7908L133.172 10.936ZM151.748 10.12H152.748V9.12H151.748V10.12ZM151.748 14.056V15.056H152.748V14.056H151.748ZM134.228 37.96V38.96H135.228V37.96H134.228ZM130.292 37.96H131.292V15.928H130.292H129.292V37.96H130.292ZM130.292 15.928H131.292C131.292 15.0418 131.505 14.2594 131.921 13.5578L131.06 13.048L130.2 12.5382C129.592 13.5646 129.292 14.7022 129.292 15.928H130.292ZM131.06 13.048L131.915 13.567C132.378 12.805 132.966 12.2209 133.682 11.7963L133.172 10.936L132.663 10.0757C131.651 10.6751 130.831 11.499 130.206 12.529L131.06 13.048ZM133.172 10.936L133.691 11.7908C134.43 11.3425 135.226 11.12 136.1 11.12V10.12V9.12C134.863 9.12 133.707 9.44149 132.653 10.0812L133.172 10.936ZM136.1 10.12V11.12H151.748V10.12V9.12H136.1V10.12ZM151.748 10.12H150.748V14.056H151.748H152.748V10.12H151.748ZM151.748 14.056V13.056H136.1V14.056V15.056H151.748V14.056ZM136.1 14.056V13.056C135.306 13.056 134.608 13.366 134.049 13.9249L134.756 14.632L135.463 15.3391C135.673 15.13 135.871 15.056 136.1 15.056V14.056ZM134.756 14.632L134.049 13.9249C133.504 14.4703 133.228 15.1592 133.228 15.928H134.228H135.228C135.228 15.6728 135.305 15.4977 135.463 15.3391L134.756 14.632ZM134.228 15.928H133.228V37.96H134.228H135.228V15.928H134.228ZM134.228 37.96V36.96H130.292V37.96V38.96H134.228V37.96ZM154.855 37.96H153.855V38.96H154.855V37.96ZM154.855 10.12V9.12H153.855V10.12H154.855ZM158.791 10.12H159.791V9.12H158.791V10.12ZM158.791 37.96V38.96H159.791V37.96H158.791ZM154.855 4.936H153.855V5.936H154.855V4.936ZM154.855 1V0H153.855V1H154.855ZM158.791 1H159.791V0H158.791V1ZM158.791 4.936V5.936H159.791V4.936H158.791ZM154.855 37.96H155.855V10.12H154.855H153.855V37.96H154.855ZM154.855 10.12V11.12H158.791V10.12V9.12H154.855V10.12ZM158.791 10.12H157.791V37.96H158.791H159.791V10.12H158.791ZM158.791 37.96V36.96H154.855V37.96V38.96H158.791V37.96ZM154.855 4.936H155.855V1H154.855H153.855V4.936H154.855ZM154.855 1V2H158.791V1V0H154.855V1ZM158.791 1H157.791V4.936H158.791H159.791V1H158.791ZM158.791 4.936V3.936H154.855V4.936V5.936H158.791V4.936ZM164.232 37.96H163.232V38.96H164.232V37.96ZM164.232 10.12V9.12H163.232V10.12H164.232ZM189.672 10.936L189.139 11.7822L189.157 11.7936L189.176 11.8042L189.672 10.936ZM191.784 13.048L190.916 13.5441L190.926 13.5627L190.938 13.5808L191.784 13.048ZM192.6 37.96V38.96H193.6V37.96H192.6ZM188.664 37.96H187.664V38.96H188.664V37.96ZM188.088 14.632L187.351 15.3077L187.38 15.3398L187.412 15.3692L188.088 14.632ZM168.744 14.632L169.42 15.3692L169.436 15.3545L169.451 15.3391L168.744 14.632ZM168.168 37.96V38.96H169.168V37.96H168.168ZM164.232 37.96H165.232V10.12H164.232H163.232V37.96H164.232ZM164.232 10.12V11.12H186.792V10.12V9.12H164.232V10.12ZM186.792 10.12V11.12C187.666 11.12 188.441 11.3423 189.139 11.7822L189.672 10.936L190.205 10.0898C189.176 9.44174 188.03 9.12 186.792 9.12V10.12ZM189.672 10.936L189.176 11.8042C189.917 12.2277 190.492 12.8032 190.916 13.5441L191.784 13.048L192.652 12.5519C192.052 11.5008 191.219 10.6683 190.168 10.0678L189.672 10.936ZM191.784 13.048L190.938 13.5808C191.378 14.2796 191.6 15.0537 191.6 15.928H192.6H193.6C193.6 14.6903 193.278 13.5444 192.63 12.5152L191.784 13.048ZM192.6 15.928H191.6V37.96H192.6H193.6V15.928H192.6ZM192.6 37.96V36.96H188.664V37.96V38.96H192.6V37.96ZM188.664 37.96H189.664V15.928H188.664H187.664V37.96H188.664ZM188.664 15.928H189.664C189.664 15.1302 189.35 14.4325 188.764 13.8948L188.088 14.632L187.412 15.3692C187.594 15.5355 187.664 15.7018 187.664 15.928H188.664ZM188.088 14.632L188.825 13.9563C188.288 13.3697 187.59 13.056 186.792 13.056V14.056V15.056C187.018 15.056 187.185 15.1263 187.351 15.3077L188.088 14.632ZM186.792 14.056V13.056H170.088V14.056V15.056H186.792V14.056ZM170.088 14.056V13.056C169.294 13.056 168.596 13.366 168.037 13.9249L168.744 14.632L169.451 15.3391C169.66 15.13 169.859 15.056 170.088 15.056V14.056ZM168.744 14.632L168.068 13.8948C167.482 14.4325 167.168 15.1302 167.168 15.928H168.168H169.168C169.168 15.7018 169.238 15.5355 169.42 15.3692L168.744 14.632ZM168.168 15.928H167.168V37.96H168.168H169.168V15.928H168.168ZM168.168 37.96V36.96H164.232V37.96V38.96H168.168V37.96ZM200.438 37.192L199.905 38.0382L199.923 38.0496L199.942 38.0602L200.438 37.192ZM198.326 35.08L197.458 35.5761L197.468 35.5947L197.48 35.6128L198.326 35.08ZM197.558 22.072V21.072H196.558V22.072H197.558ZM221.942 22.072V23.072H222.942V22.072H221.942ZM221.366 14.632L220.629 15.3077L220.658 15.3398L220.69 15.3692L221.366 14.632ZM197.558 14.056H196.558V15.056H197.558V14.056ZM197.558 10.12V9.12H196.558V10.12H197.558ZM222.998 10.936L222.465 11.7822L222.483 11.7936L222.502 11.8042L222.998 10.936ZM225.11 13.048L224.242 13.5441L224.252 13.5627L224.264 13.5808L225.11 13.048ZM225.926 37.96V38.96H226.926V37.96H225.926ZM221.942 34.024V35.024H222.942V34.024H221.942ZM221.942 26.008H222.942V25.008H221.942V26.008ZM201.494 26.008V25.008H200.494V26.008H201.494ZM202.022 33.496L201.285 34.1717L201.314 34.2038L201.346 34.2332L202.022 33.496ZM203.366 37.96V36.96C202.48 36.96 201.675 36.7473 200.934 36.3238L200.438 37.192L199.942 38.0602C200.993 38.6607 202.14 38.96 203.366 38.96V37.96ZM200.438 37.192L200.971 36.3458C200.233 35.8815 199.637 35.2846 199.172 34.5472L198.326 35.08L197.48 35.6128C198.103 36.6034 198.915 37.4145 199.905 38.0382L200.438 37.192ZM198.326 35.08L199.194 34.5839C198.771 33.8426 198.558 33.0382 198.558 32.152H197.558H196.558C196.558 33.3778 196.857 34.5254 197.458 35.5761L198.326 35.08ZM197.558 32.152H198.558V22.072H197.558H196.558V32.152H197.558ZM197.558 22.072V23.072H221.942V22.072V21.072H197.558V22.072ZM221.942 22.072H222.942V15.928H221.942H220.942V22.072H221.942ZM221.942 15.928H222.942C222.942 15.1302 222.628 14.4325 222.042 13.8948L221.366 14.632L220.69 15.3692C220.872 15.5355 220.942 15.7018 220.942 15.928H221.942ZM221.366 14.632L222.103 13.9563C221.565 13.3697 220.868 13.056 220.07 13.056V14.056V15.056C220.296 15.056 220.462 15.1263 220.629 15.3077L221.366 14.632ZM220.07 14.056V13.056H197.558V14.056V15.056H220.07V14.056ZM197.558 14.056H198.558V10.12H197.558H196.558V14.056H197.558ZM197.558 10.12V11.12H220.07V10.12V9.12H197.558V10.12ZM220.07 10.12V11.12C220.982 11.12 221.771 11.3454 222.465 11.7822L222.998 10.936L223.531 10.0898C222.497 9.43863 221.334 9.12 220.07 9.12V10.12ZM222.998 10.936L222.502 11.8042C223.243 12.2277 223.818 12.8032 224.242 13.5441L225.11 13.048L225.978 12.5519C225.378 11.5008 224.545 10.6683 223.494 10.0678L222.998 10.936ZM225.11 13.048L224.264 13.5808C224.704 14.2796 224.926 15.0537 224.926 15.928H225.926H226.926C226.926 14.6903 226.604 13.5444 225.956 12.5152L225.11 13.048ZM225.926 15.928H224.926V37.96H225.926H226.926V15.928H225.926ZM225.926 37.96V36.96H203.366V37.96V38.96H225.926V37.96ZM203.366 34.024V35.024H221.942V34.024V33.024H203.366V34.024ZM221.942 34.024H222.942V26.008H221.942H220.942V34.024H221.942ZM221.942 26.008V25.008H201.494V26.008V27.008H221.942V26.008ZM201.494 26.008H200.494V32.152H201.494H202.494V26.008H201.494ZM201.494 32.152H200.494C200.494 32.919 200.767 33.6069 201.285 34.1717L202.022 33.496L202.759 32.8203C202.573 32.6171 202.494 32.409 202.494 32.152H201.494ZM202.022 33.496L201.346 34.2332C201.911 34.751 202.599 35.024 203.366 35.024V34.024V33.024C203.109 33.024 202.901 32.945 202.698 32.7589L202.022 33.496ZM242.646 37.96L241.706 38.302L241.946 38.96H242.646V37.96ZM230.07 3.4V2.4H228.642L229.13 3.74195L230.07 3.4ZM234.198 3.4L235.137 3.05708L234.898 2.4H234.198V3.4ZM244.326 31.144L243.387 31.4869L244.328 34.0663L245.266 31.4855L244.326 31.144ZM254.406 3.4V2.4H253.705L253.466 3.05852L254.406 3.4ZM259.11 3.4L260.049 3.05708L259.81 2.4H259.11V3.4ZM269.238 31.144L268.299 31.4869L269.243 34.0724L270.179 31.484L269.238 31.144ZM279.27 3.4V2.4H278.568L278.33 3.05996L279.27 3.4ZM283.494 3.4L284.434 3.74195L284.922 2.4H283.494V3.4ZM270.918 37.96V38.96H271.618L271.858 38.302L270.918 37.96ZM267.51 37.96L266.571 38.3022L266.81 38.96H267.51V37.96ZM256.758 8.44L257.698 8.09777L256.758 5.51802L255.819 8.09777L256.758 8.44ZM246.006 37.96V38.96H246.706L246.946 38.3022L246.006 37.96ZM242.646 37.96L243.586 37.618L231.01 3.05805L230.07 3.4L229.13 3.74195L241.706 38.302L242.646 37.96ZM230.07 3.4V4.4H234.198V3.4V2.4H230.07V3.4ZM234.198 3.4L233.259 3.74292L243.387 31.4869L244.326 31.144L245.265 30.8011L235.137 3.05708L234.198 3.4ZM244.326 31.144L245.266 31.4855L255.346 3.74148L254.406 3.4L253.466 3.05852L243.386 30.8025L244.326 31.144ZM254.406 3.4V4.4H259.11V3.4V2.4H254.406V3.4ZM259.11 3.4L258.171 3.74292L268.299 31.4869L269.238 31.144L270.177 30.8011L260.049 3.05708L259.11 3.4ZM269.238 31.144L270.179 31.484L280.211 3.74005L279.27 3.4L278.33 3.05996L268.298 30.804L269.238 31.144ZM279.27 3.4V4.4H283.494V3.4V2.4H279.27V3.4ZM283.494 3.4L282.554 3.05805L269.978 37.618L270.918 37.96L271.858 38.302L284.434 3.74195L283.494 3.4ZM270.918 37.96V36.96H267.51V37.96V38.96H270.918V37.96ZM267.51 37.96L268.45 37.6178L257.698 8.09777L256.758 8.44L255.819 8.78224L266.571 38.3022L267.51 37.96ZM256.758 8.44L255.819 8.09777L245.067 37.6178L246.006 37.96L246.946 38.3022L257.698 8.78224L256.758 8.44ZM246.006 37.96V36.96H242.646V37.96V38.96H246.006V37.96ZM288.609 37.192L288.076 38.0382L288.094 38.0496L288.113 38.0602L288.609 37.192ZM286.497 35.08L285.628 35.5761L285.639 35.5947L285.651 35.6128L286.497 35.08ZM286.497 13.048L285.642 12.529L285.636 12.5382L286.497 13.048ZM288.609 10.936L289.119 11.7963L289.128 11.7908L288.609 10.936ZM311.169 10.936L310.636 11.7822L310.654 11.7936L310.673 11.8042L311.169 10.936ZM313.281 13.048L312.412 13.5441L312.423 13.5627L312.435 13.5808L313.281 13.048ZM314.097 26.008V27.008H315.097V26.008H314.097ZM289.665 26.008V25.008H288.665V26.008H289.665ZM290.193 33.496L289.456 34.1717L289.485 34.2038L289.517 34.2332L290.193 33.496ZM314.097 34.024H315.097V33.024H314.097V34.024ZM314.097 37.96V38.96H315.097V37.96H314.097ZM289.665 22.072H288.665V23.072H289.665V22.072ZM310.113 22.072V23.072H311.113V22.072H310.113ZM309.537 14.632L308.8 15.3077L308.829 15.3398L308.861 15.3692L309.537 14.632ZM291.537 37.96V36.96C290.651 36.96 289.846 36.7473 289.105 36.3238L288.609 37.192L288.113 38.0602C289.163 38.6607 290.311 38.96 291.537 38.96V37.96ZM288.609 37.192L289.142 36.3458C288.404 35.8815 287.807 35.2846 287.343 34.5472L286.497 35.08L285.651 35.6128C286.274 36.6034 287.085 37.4145 288.076 38.0382L288.609 37.192ZM286.497 35.08L287.365 34.5839C286.941 33.8426 286.729 33.0382 286.729 32.152H285.729H284.729C284.729 33.3778 285.028 34.5254 285.628 35.5761L286.497 35.08ZM285.729 32.152H286.729V15.928H285.729H284.729V32.152H285.729ZM285.729 15.928H286.729C286.729 15.0418 286.941 14.2594 287.357 13.5578L286.497 13.048L285.636 12.5382C285.028 13.5646 284.729 14.7022 284.729 15.928H285.729ZM286.497 13.048L287.352 13.567C287.814 12.805 288.402 12.2209 289.119 11.7963L288.609 10.936L288.099 10.0757C287.087 10.6751 286.267 11.499 285.642 12.529L286.497 13.048ZM288.609 10.936L289.128 11.7908C289.866 11.3425 290.662 11.12 291.537 11.12V10.12V9.12C290.299 9.12 289.143 9.44149 288.09 10.0812L288.609 10.936ZM291.537 10.12V11.12H308.241V10.12V9.12H291.537V10.12ZM308.241 10.12V11.12C309.153 11.12 309.942 11.3454 310.636 11.7822L311.169 10.936L311.702 10.0898C310.667 9.43863 309.504 9.12 308.241 9.12V10.12ZM311.169 10.936L310.673 11.8042C311.414 12.2277 311.989 12.8032 312.412 13.5441L313.281 13.048L314.149 12.5519C313.548 11.5008 312.716 10.6683 311.665 10.0678L311.169 10.936ZM313.281 13.048L312.435 13.5808C312.874 14.2796 313.097 15.0537 313.097 15.928H314.097H315.097C315.097 14.6903 314.775 13.5444 314.127 12.5152L313.281 13.048ZM314.097 15.928H313.097V26.008H314.097H315.097V15.928H314.097ZM314.097 26.008V25.008H289.665V26.008V27.008H314.097V26.008ZM289.665 26.008H288.665V32.152H289.665H290.665V26.008H289.665ZM289.665 32.152H288.665C288.665 32.919 288.938 33.6069 289.456 34.1717L290.193 33.496L290.93 32.8203C290.744 32.6171 290.665 32.409 290.665 32.152H289.665ZM290.193 33.496L289.517 34.2332C290.082 34.751 290.77 35.024 291.537 35.024V34.024V33.024C291.28 33.024 291.072 32.945 290.868 32.7589L290.193 33.496ZM291.537 34.024V35.024H314.097V34.024V33.024H291.537V34.024ZM314.097 34.024H313.097V37.96H314.097H315.097V34.024H314.097ZM314.097 37.96V36.96H291.537V37.96V38.96H314.097V37.96ZM289.665 22.072V23.072H310.113V22.072V21.072H289.665V22.072ZM310.113 22.072H311.113V15.928H310.113H309.113V22.072H310.113ZM310.113 15.928H311.113C311.113 15.1302 310.799 14.4325 310.212 13.8948L309.537 14.632L308.861 15.3692C309.042 15.5355 309.113 15.7018 309.113 15.928H310.113ZM309.537 14.632L310.274 13.9563C309.736 13.3697 309.039 13.056 308.241 13.056V14.056V15.056C308.467 15.056 308.633 15.1263 308.8 15.3077L309.537 14.632ZM308.241 14.056V13.056H291.537V14.056V15.056H308.241V14.056ZM291.537 14.056V13.056C290.742 13.056 290.045 13.366 289.486 13.9249L290.193 14.632L290.9 15.3391C291.109 15.13 291.307 15.056 291.537 15.056V14.056ZM290.193 14.632L289.486 13.9249C288.94 14.4703 288.665 15.1592 288.665 15.928H289.665H290.665C290.665 15.6728 290.741 15.4977 290.9 15.3391L290.193 14.632ZM289.665 15.928H288.665V22.072H289.665H290.665V15.928H289.665ZM319.107 37.96H318.107V38.96H319.107V37.96ZM319.107 1V0H318.107V1H319.107ZM323.043 1H324.043V0H323.043V1ZM323.043 10.12H322.043V11.12H323.043V10.12ZM344.547 10.936L344.014 11.7822L344.032 11.7936L344.051 11.8042L344.547 10.936ZM346.659 13.048L345.791 13.5441L345.801 13.5627L345.813 13.5808L346.659 13.048ZM346.659 35.08L345.804 34.561L345.799 34.5702L346.659 35.08ZM344.547 37.192L345.057 38.0523L345.066 38.0468L344.547 37.192ZM342.963 33.496L342.256 32.7889V32.7889L342.963 33.496ZM342.963 14.632L342.226 15.3077L342.255 15.3398L342.287 15.3692L342.963 14.632ZM323.619 14.632L324.295 15.3692L324.311 15.3545L324.326 15.3391L323.619 14.632ZM323.619 33.496L322.912 34.2031L322.927 34.2185L322.943 34.2332L323.619 33.496ZM319.107 37.96H320.107V1H319.107H318.107V37.96H319.107ZM319.107 1V2H323.043V1V0H319.107V1ZM323.043 1H322.043V10.12H323.043H324.043V1H323.043ZM323.043 10.12V11.12H341.667V10.12V9.12H323.043V10.12ZM341.667 10.12V11.12C342.541 11.12 343.316 11.3423 344.014 11.7822L344.547 10.936L345.08 10.0898C344.051 9.44174 342.905 9.12 341.667 9.12V10.12ZM344.547 10.936L344.051 11.8042C344.792 12.2277 345.367 12.8032 345.791 13.5441L346.659 13.048L347.527 12.5519C346.927 11.5008 346.094 10.6683 345.043 10.0678L344.547 10.936ZM346.659 13.048L345.813 13.5808C346.253 14.2796 346.475 15.0537 346.475 15.928H347.475H348.475C348.475 14.6903 348.153 13.5444 347.505 12.5152L346.659 13.048ZM347.475 15.928H346.475V32.152H347.475H348.475V15.928H347.475ZM347.475 32.152H346.475C346.475 33.0264 346.253 33.8227 345.804 34.561L346.659 35.08L347.514 35.599C348.154 34.5453 348.475 33.3896 348.475 32.152H347.475ZM346.659 35.08L345.799 34.5702C345.374 35.2867 344.79 35.8746 344.028 36.3372L344.547 37.192L345.066 38.0468C346.096 37.4214 346.92 36.6013 347.519 35.5898L346.659 35.08ZM344.547 37.192L344.037 36.3317C343.336 36.7475 342.553 36.96 341.667 36.96V37.96V38.96C342.893 38.96 344.031 38.6605 345.057 38.0523L344.547 37.192ZM341.667 37.96V36.96H319.107V37.96V38.96H341.667V37.96ZM324.963 34.024V35.024H341.667V34.024V33.024H324.963V34.024ZM341.667 34.024V35.024C342.436 35.024 343.125 34.7485 343.67 34.2031L342.963 33.496L342.256 32.7889C342.097 32.9475 341.922 33.024 341.667 33.024V34.024ZM342.963 33.496L343.67 34.2031C344.229 33.6442 344.539 32.9466 344.539 32.152H343.539H342.539C342.539 32.3815 342.465 32.5798 342.256 32.7889L342.963 33.496ZM343.539 32.152H344.539V15.928H343.539H342.539V32.152H343.539ZM343.539 15.928H344.539C344.539 15.1302 344.225 14.4325 343.639 13.8948L342.963 14.632L342.287 15.3692C342.469 15.5355 342.539 15.7018 342.539 15.928H343.539ZM342.963 14.632L343.7 13.9563C343.163 13.3697 342.465 13.056 341.667 13.056V14.056V15.056C341.893 15.056 342.06 15.1263 342.226 15.3077L342.963 14.632ZM341.667 14.056V13.056H324.963V14.056V15.056H341.667V14.056ZM324.963 14.056V13.056C324.169 13.056 323.471 13.366 322.912 13.9249L323.619 14.632L324.326 15.3391C324.535 15.13 324.734 15.056 324.963 15.056V14.056ZM323.619 14.632L322.943 13.8948C322.357 14.4325 322.043 15.1302 322.043 15.928H323.043H324.043C324.043 15.7018 324.113 15.5355 324.295 15.3692L323.619 14.632ZM323.043 15.928H322.043V32.152H323.043H324.043V15.928H323.043ZM323.043 32.152H322.043C322.043 32.9466 322.353 33.6442 322.912 34.2031L323.619 33.496L324.326 32.7889C324.117 32.5798 324.043 32.3815 324.043 32.152H323.043ZM323.619 33.496L322.943 34.2332C323.508 34.751 324.196 35.024 324.963 35.024V34.024V33.024C324.706 33.024 324.498 32.945 324.295 32.7588L323.619 33.496Z" fill="#E68686" mask="url(#path-1-outside-1_1_2)"/>
</g>
<defs>
<filter id="filter0_d_1_2" x="0" y="0" width="352.475" height="46.96" filterUnits="userSpaceOnUse" color-interpolation-filters="sRGB">
<feFlood flood-opacity="0" result="BackgroundImageFix"/>
<feColorMatrix in="SourceAlpha" type="matrix" values="0 0 0 0 0 0 0 0 0 0 0 0 0 0 0 0 0 0 127 0" result="hardAlpha"/>
<feOffset dy="4"/>
<feGaussianBlur stdDeviation="2"/>
<feComposite in2="hardAlpha" operator="out"/>
<feColorMatrix type="matrix" values="0 0 0 0 0 0 0 0 0 0 0 0 0 0 0 0 0 0 0.25 0"/>
<feBlend mode="normal" in2="BackgroundImageFix" result="effect1_dropShadow_1_2"/>
<feBlend mode="normal" in="SourceGraphic" in2="effect1_dropShadow_1_2" result="shape"/>
</filter>
</defs>
</svg>
